<svg xmlns="http://www.w3.org/2000/svg" viewBox="0 0 32 32" width="32" height="32">
  <defs>
    <linearGradient id="boneGrad" x1="0%" y1="0%" x2="100%" y2="100%">
      <stop offset="0%" stop-color="#2dd4bf" />
      <stop offset="100%" stop-color="#10b981" />
    </linearGradient>
  </defs>

  <g transform="translate(16, 16) rotate(-45) translate(-16, -16)">
    <!-- Left Half of Bone -->
    <path d="M 15,13 L 8,11.5 A 3,3 0 1,0 5,16 A 3,3 0 1,0 8,20.5 L 15,19 L 13.5,17 L 16.5,15 Z" fill="url(#boneGrad)" stroke="#0f766e" stroke-width="1.2" stroke-linejoin="round" />
          
    <!-- Right Half of Bone (Displaced and rotated) -->
    <g transform="translate(2, -1.5) rotate(8, 17, 16)">
      <path d="M 17,13 L 24,11.5 A 3,3 0 1,1 27,16 A 3,3 0 1,1 24,20.5 L 17,19 L 15.5,17 L 18.5,15 Z" fill="url(#boneGrad)" stroke="#0f766e" stroke-width="1.2" stroke-linejoin="round" />
    </g>
  </g>
</svg>